<svg xmlns="http://www.w3.org/2000/svg" xmlns:xlink="http://www.w3.org/1999/xlink" viewBox="0 0 837.07 1030.83"><defs><style>.cls-1,.cls-12,.cls-13,.cls-14,.cls-15,.cls-16,.cls-17,.cls-18,.cls-19,.cls-20{fill:none;}.cls-2{clip-path:url(#clip-path);}.cls-3{fill:#f5eedf;}.cls-4{fill:#fff;}.cls-5{fill:#d9eff0;}.cls-6{fill:#b5dadb;}.cls-7{fill:#e1e0e2;}.cls-8{fill:#cccacc;}.cls-9{fill:#f0d9ef;}.cls-10{fill:#eeedef;}.cls-11{fill:#b2b1b2;}.cls-12,.cls-13,.cls-14,.cls-15,.cls-16,.cls-17,.cls-18,.cls-19,.cls-20{stroke:#000;}.cls-12,.cls-14,.cls-17,.cls-19,.cls-20{stroke-miterlimit:10;}.cls-12,.cls-13,.cls-15{stroke-width:3px;}.cls-13,.cls-17,.cls-18,.cls-20{stroke-linecap:round;}.cls-13,.cls-15,.cls-16,.cls-18{stroke-linejoin:round;}.cls-14,.cls-16,.cls-17,.cls-18{stroke-width:2px;}</style><clipPath id="clip-path"><rect class="cls-1" x="-0.37" y="0.02" width="837.66" height="1030.83"/></clipPath></defs><g id="Layer_8" data-name="Layer 8"><g class="cls-2"><rect class="cls-3" x="793.95" y="79.57" width="53.4" height="318"/><rect class="cls-3" x="-8.45" y="79.57" width="54.17" height="318"/><rect class="cls-3" x="293.29" y="496.78" width="225.75" height="882.32" transform="translate(1344.1 531.78) rotate(90)"/><rect class="cls-3" x="392.3" y="-422.68" width="68.53" height="882.32" transform="translate(445.05 -408.08) rotate(90)"/><rect class="cls-4" x="261.73" y="-134.57" width="317.25" height="746.28" transform="translate(658.93 -181.79) rotate(90)"/><circle class="cls-4" cx="752.73" cy="658.86" r="116.38"/><circle class="cls-4" cx="405.73" cy="658.86" r="116.38"/><circle class="cls-4" cx="58.74" cy="658.86" r="116.38"/><path class="cls-5" d="M232.43,505.27V810.38h347V505.27Zm173.31,270A116.38,116.38,0,1,1,522.11,658.86,116.38,116.38,0,0,1,405.74,775.24Z"/><path class="cls-5" d="M579.43,505.27V810.38h347V505.27Zm173.3,270A116.38,116.38,0,1,1,869.1,658.86,116.38,116.38,0,0,1,752.73,775.24Z"/><path class="cls-5" d="M-114.56,505.27V810.38h347V505.27Zm173.31,270A116.38,116.38,0,1,1,175.12,658.86,116.38,116.38,0,0,1,58.75,775.24Z"/><path class="cls-6" d="M405.74,542.48A116.38,116.38,0,1,0,522.11,658.86,116.37,116.37,0,0,0,405.74,542.48Zm0,219.13A102.75,102.75,0,1,1,499.58,617a51.57,51.57,0,0,0-7.08,8,53.89,53.89,0,0,0-9.94,31.92,58.56,58.56,0,0,0,10.71,33.86h0a58.89,58.89,0,0,0,7.06,8.3A102.76,102.76,0,0,1,405.74,761.61Z"/><path class="cls-6" d="M752.73,542.48A116.38,116.38,0,1,0,869.1,658.86,116.37,116.37,0,0,0,752.73,542.48Zm0,219.13A102.75,102.75,0,1,1,846.58,617a51.63,51.63,0,0,0-7.09,8,53.89,53.89,0,0,0-9.94,31.92A59,59,0,0,0,847.33,699,102.78,102.78,0,0,1,752.73,761.61Z"/><path class="cls-6" d="M58.75,542.48A116.38,116.38,0,1,0,175.12,658.86,116.37,116.37,0,0,0,58.75,542.48Zm0,219.13A102.75,102.75,0,1,1,152.59,617a52.16,52.16,0,0,0-7.09,8,54,54,0,0,0-9.93,31.92,58.56,58.56,0,0,0,10.71,33.86h0a58.89,58.89,0,0,0,7.06,8.3A102.76,102.76,0,0,1,58.75,761.61Z"/><path class="cls-4" d="M500.33,699a102.75,102.75,0,1,1-.75-82.06,51.57,51.57,0,0,0-7.08,8,93.14,93.14,0,1,0,.77,65.79A58.89,58.89,0,0,0,500.33,699Z"/><path class="cls-4" d="M493.27,690.72h0a93.12,93.12,0,1,1-.77-65.79,53.89,53.89,0,0,0-9.94,31.92A58.56,58.56,0,0,0,493.27,690.72Z"/><path class="cls-4" d="M153.34,699a102.75,102.75,0,1,1-.75-82.06,52.16,52.16,0,0,0-7.09,8,93.12,93.12,0,1,0,.78,65.79A58.89,58.89,0,0,0,153.34,699Z"/><path class="cls-4" d="M146.28,690.72h0a93.14,93.14,0,1,1-.78-65.79,54,54,0,0,0-9.93,31.92A58.56,58.56,0,0,0,146.28,690.72Z"/><path class="cls-7" d="M232.43,438.35v66.92h347V438.35ZM267,491.11A20.13,20.13,0,1,1,287.1,471,20.14,20.14,0,0,1,267,491.11Zm34.11-9.37a3.22,3.22,0,1,1,3.22-3.22A3.23,3.23,0,0,1,301.08,481.74Zm0-13a3.22,3.22,0,1,1,3.22-3.22A3.23,3.23,0,0,1,301.08,468.74Zm262.38,24H521.93V451.22h41.53Z"/><path class="cls-7" d="M579.43,438.35v66.92h347V438.35ZM614,491.11A20.13,20.13,0,1,1,634.09,471,20.13,20.13,0,0,1,614,491.11Zm34.11-9.37a3.22,3.22,0,1,1,3.22-3.22A3.23,3.23,0,0,1,648.07,481.74Zm0-13a3.22,3.22,0,1,1,3.22-3.22A3.23,3.23,0,0,1,648.07,468.74Zm262.38,24H868.92V451.22h41.53Z"/><path class="cls-7" d="M-114.56,438.35v66.92h347V438.35ZM-80,491.11A20.14,20.14,0,0,1-100.15,471,20.13,20.13,0,0,1-80,450.85,20.13,20.13,0,0,1-59.89,471,20.13,20.13,0,0,1-80,491.11Zm34.11-9.37a3.23,3.23,0,0,1-3.23-3.22,3.23,3.23,0,0,1,3.23-3.22,3.22,3.22,0,0,1,3.22,3.22A3.22,3.22,0,0,1-45.91,481.74Zm0-13a3.23,3.23,0,0,1-3.23-3.22,3.23,3.23,0,0,1,3.23-3.22,3.22,3.22,0,0,1,3.22,3.22A3.22,3.22,0,0,1-45.91,468.74Zm262.38,24H174.94V451.22h41.53Z"/><path class="cls-7" d="M273.47,459.7l-17.29,18.56a13,13,0,0,1,17.29-18.56Z"/><path class="cls-7" d="M280,471a13,13,0,0,1-19.51,11.27l17.29-18.56A13,13,0,0,1,280,471Z"/><path class="cls-7" d="M620.46,459.7l-17.29,18.56a13,13,0,0,1,17.29-18.56Z"/><path class="cls-7" d="M627,471a13,13,0,0,1-19.51,11.27l17.29-18.56A13,13,0,0,1,627,471Z"/><path class="cls-8" d="M267,450.85A20.13,20.13,0,1,0,287.1,471,20.13,20.13,0,0,0,267,450.85ZM254,471a13,13,0,0,1,19.52-11.28l-17.29,18.56A12.94,12.94,0,0,1,254,471Zm13,13a13,13,0,0,1-6.49-1.75l17.29-18.56A13,13,0,0,1,267,484Z"/><path class="cls-8" d="M614,450.85A20.13,20.13,0,1,0,634.09,471,20.12,20.12,0,0,0,614,450.85ZM601,471a13,13,0,0,1,19.51-11.28l-17.29,18.56A13,13,0,0,1,601,471Zm13,13a13,13,0,0,1-6.49-1.75l17.29-18.56A13,13,0,0,1,614,484Z"/><path class="cls-7" d="M557,472a14.31,14.31,0,1,1-14.31-14.31A14.31,14.31,0,0,1,557,472Z"/><path class="cls-7" d="M210,472a14.3,14.3,0,1,1-14.3-14.31A14.3,14.3,0,0,1,210,472Z"/><path class="cls-8" d="M521.93,451.22v41.53h41.53V451.22Zm20.76,35.07A14.31,14.31,0,1,1,557,472,14.3,14.3,0,0,1,542.69,486.29Z"/><path class="cls-8" d="M174.94,451.22v41.53h41.53V451.22Zm20.76,35.07A14.31,14.31,0,1,1,210,472,14.3,14.3,0,0,1,195.7,486.29Z"/><rect class="cls-9" x="231.97" y="193.16" width="376.8" height="134.15"/><rect class="cls-4" x="239.05" y="200.25" width="362.63" height="119.97"/><rect class="cls-10" x="-0.52" y="52.75" width="839.34" height="27"/><path class="cls-8" d="M419.05,16.68a67.16,67.16,0,0,0-65.63,52.94H484.69A67.18,67.18,0,0,0,419.05,16.68Z"/><rect class="cls-8" x="-6.57" y="412" width="867.91" height="26.22"/><rect class="cls-10" x="-6.57" y="397.36" width="867.91" height="14.07"/><rect class="cls-11" x="-6.57" y="810.56" width="867.91" height="13.17"/><rect class="cls-3" x="793.95" y="79.57" width="53.4" height="318"/><rect class="cls-3" x="-8.45" y="79.57" width="54.17" height="318"/><rect class="cls-3" x="293.29" y="496.78" width="225.75" height="882.32" transform="translate(1344.1 531.78) rotate(90)"/><rect class="cls-3" x="392.3" y="-422.68" width="68.53" height="882.32" transform="translate(445.05 -408.08) rotate(90)"/><rect class="cls-4" x="261.73" y="-134.57" width="317.25" height="746.28" transform="translate(658.93 -181.79) rotate(90)"/><circle class="cls-4" cx="752.73" cy="658.86" r="116.38"/><circle class="cls-4" cx="405.73" cy="658.86" r="116.38"/><circle class="cls-4" cx="58.74" cy="658.86" r="116.38"/><path class="cls-5" d="M232.43,505.27V810.38h347V505.27Zm173.31,270A116.38,116.38,0,1,1,522.11,658.86,116.38,116.38,0,0,1,405.74,775.24Z"/><path class="cls-5" d="M579.43,505.27V810.38h347V505.27Zm173.3,270A116.38,116.38,0,1,1,869.1,658.86,116.38,116.38,0,0,1,752.73,775.24Z"/><path class="cls-5" d="M-114.56,505.27V810.38h347V505.27Zm173.31,270A116.38,116.38,0,1,1,175.12,658.86,116.38,116.38,0,0,1,58.75,775.24Z"/><path class="cls-6" d="M405.74,542.48A116.38,116.38,0,1,0,522.11,658.86,116.37,116.37,0,0,0,405.74,542.48Zm0,219.13A102.75,102.75,0,1,1,499.58,617a51.57,51.57,0,0,0-7.08,8,53.89,53.89,0,0,0-9.94,31.92,58.56,58.56,0,0,0,10.71,33.86h0a58.89,58.89,0,0,0,7.06,8.3A102.76,102.76,0,0,1,405.74,761.61Z"/><path class="cls-6" d="M752.73,542.48A116.38,116.38,0,1,0,869.1,658.86,116.37,116.37,0,0,0,752.73,542.48Zm0,219.13A102.75,102.75,0,1,1,846.58,617a51.63,51.63,0,0,0-7.09,8,53.89,53.89,0,0,0-9.94,31.92A59,59,0,0,0,847.33,699,102.78,102.78,0,0,1,752.73,761.61Z"/><path class="cls-6" d="M58.75,542.48A116.38,116.38,0,1,0,175.12,658.86,116.37,116.37,0,0,0,58.75,542.48Zm0,219.13A102.75,102.75,0,1,1,152.59,617a52.16,52.16,0,0,0-7.09,8,54,54,0,0,0-9.93,31.92,58.56,58.56,0,0,0,10.71,33.86h0a58.89,58.89,0,0,0,7.06,8.3A102.76,102.76,0,0,1,58.75,761.61Z"/><path class="cls-4" d="M500.33,699a102.75,102.75,0,1,1-.75-82.06,51.57,51.57,0,0,0-7.08,8,93.14,93.14,0,1,0,.77,65.79A58.89,58.89,0,0,0,500.33,699Z"/><path class="cls-4" d="M493.27,690.72h0a93.12,93.12,0,1,1-.77-65.79,53.89,53.89,0,0,0-9.94,31.92A58.56,58.56,0,0,0,493.27,690.72Z"/><path class="cls-4" d="M153.34,699a102.75,102.75,0,1,1-.75-82.06,52.16,52.16,0,0,0-7.09,8,93.12,93.12,0,1,0,.78,65.79A58.89,58.89,0,0,0,153.34,699Z"/><path class="cls-4" d="M146.28,690.72h0a93.14,93.14,0,1,1-.78-65.79,54,54,0,0,0-9.93,31.92A58.56,58.56,0,0,0,146.28,690.72Z"/><path class="cls-7" d="M232.43,438.35v66.92h347V438.35ZM267,491.11A20.13,20.13,0,1,1,287.1,471,20.14,20.14,0,0,1,267,491.11Zm34.11-9.37a3.22,3.22,0,1,1,3.22-3.22A3.23,3.23,0,0,1,301.08,481.74Zm0-13a3.22,3.22,0,1,1,3.22-3.22A3.23,3.23,0,0,1,301.08,468.74Zm262.38,24H521.93V451.22h41.53Z"/><path class="cls-7" d="M579.43,438.35v66.92h347V438.35ZM614,491.11A20.13,20.13,0,1,1,634.09,471,20.13,20.13,0,0,1,614,491.11Zm34.11-9.37a3.22,3.22,0,1,1,3.22-3.22A3.23,3.23,0,0,1,648.07,481.74Zm0-13a3.22,3.22,0,1,1,3.22-3.22A3.23,3.23,0,0,1,648.07,468.74Zm262.38,24H868.92V451.22h41.53Z"/><path class="cls-7" d="M-114.56,438.35v66.92h347V438.35ZM-80,491.11A20.14,20.14,0,0,1-100.15,471,20.13,20.13,0,0,1-80,450.85,20.13,20.13,0,0,1-59.89,471,20.13,20.13,0,0,1-80,491.11Zm34.11-9.37a3.23,3.23,0,0,1-3.23-3.22,3.23,3.23,0,0,1,3.23-3.22,3.22,3.22,0,0,1,3.22,3.22A3.22,3.22,0,0,1-45.91,481.74Zm0-13a3.23,3.23,0,0,1-3.23-3.22,3.23,3.23,0,0,1,3.23-3.22,3.22,3.22,0,0,1,3.22,3.22A3.22,3.22,0,0,1-45.91,468.74Zm262.38,24H174.94V451.22h41.53Z"/><path class="cls-7" d="M273.47,459.7l-17.29,18.56a13,13,0,0,1,17.29-18.56Z"/><path class="cls-7" d="M280,471a13,13,0,0,1-19.51,11.27l17.29-18.56A13,13,0,0,1,280,471Z"/><path class="cls-7" d="M620.46,459.7l-17.29,18.56a13,13,0,0,1,17.29-18.56Z"/><path class="cls-7" d="M627,471a13,13,0,0,1-19.51,11.27l17.29-18.56A13,13,0,0,1,627,471Z"/><path class="cls-8" d="M267,450.85A20.13,20.13,0,1,0,287.1,471,20.13,20.13,0,0,0,267,450.85ZM254,471a13,13,0,0,1,19.52-11.28l-17.29,18.56A12.94,12.94,0,0,1,254,471Zm13,13a13,13,0,0,1-6.49-1.75l17.29-18.56A13,13,0,0,1,267,484Z"/><path class="cls-8" d="M614,450.85A20.13,20.13,0,1,0,634.09,471,20.12,20.12,0,0,0,614,450.85ZM601,471a13,13,0,0,1,19.51-11.28l-17.29,18.56A13,13,0,0,1,601,471Zm13,13a13,13,0,0,1-6.49-1.75l17.29-18.56A13,13,0,0,1,614,484Z"/><path class="cls-7" d="M557,472a14.31,14.31,0,1,1-14.31-14.31A14.31,14.31,0,0,1,557,472Z"/><path class="cls-7" d="M210,472a14.3,14.3,0,1,1-14.3-14.31A14.3,14.3,0,0,1,210,472Z"/><path class="cls-8" d="M521.93,451.22v41.53h41.53V451.22Zm20.76,35.07A14.31,14.31,0,1,1,557,472,14.3,14.3,0,0,1,542.69,486.29Z"/><path class="cls-8" d="M174.94,451.22v41.53h41.53V451.22Zm20.76,35.07A14.31,14.31,0,1,1,210,472,14.3,14.3,0,0,1,195.7,486.29Z"/><rect class="cls-9" x="231.97" y="193.16" width="376.8" height="134.15"/><rect class="cls-4" x="239.05" y="200.25" width="362.63" height="119.97"/><rect class="cls-10" x="-0.52" y="52.75" width="839.34" height="27"/><path class="cls-8" d="M419.05,16.68a67.16,67.16,0,0,0-65.63,52.94H484.69A67.18,67.18,0,0,0,419.05,16.68Z"/><rect class="cls-8" x="-6.57" y="412" width="867.91" height="26.22"/><rect class="cls-10" x="-6.57" y="397.36" width="867.91" height="14.07"/><rect class="cls-11" x="-6.57" y="810.56" width="867.91" height="13.17"/><line class="cls-12" x1="478.58" y1="52.75" x2="838.82" y2="52.75"/><line class="cls-12" x1="-0.52" y1="52.75" x2="359.86" y2="52.75"/><path class="cls-13" d="M419.05,16.68a67.16,67.16,0,0,0-65.63,52.94H484.69A67.18,67.18,0,0,0,419.05,16.68Z"/><line class="cls-12" x1="419.05" y1="-0.05" x2="419.05" y2="16.13"/><line class="cls-12" x1="-0.52" y1="79.75" x2="838.82" y2="79.75"/><line class="cls-12" x1="-0.52" y1="397.75" x2="838.82" y2="397.75"/><line class="cls-12" x1="-0.52" y1="411.75" x2="838.82" y2="411.75"/><line class="cls-12" x1="-0.52" y1="823.96" x2="838.82" y2="823.96"/><line class="cls-14" x1="45.95" y1="78.78" x2="45.95" y2="398.36"/><line class="cls-14" x1="793.95" y1="78.78" x2="793.95" y2="398.36"/><rect class="cls-15" x="232.43" y="438.35" width="346.99" height="372.04"/><line class="cls-12" x1="232.43" y1="438.35" x2="261.61" y2="411.63"/><line class="cls-12" x1="579.61" y1="438.35" x2="550.43" y2="411.63"/><rect class="cls-16" x="521.93" y="451.22" width="41.53" height="41.53"/><circle class="cls-14" cx="542.69" cy="471.99" r="14.3"/><line class="cls-17" x1="542.69" y1="464.6" x2="542.69" y2="479.37"/><circle class="cls-16" cx="266.97" cy="470.97" r="20.13"/><path class="cls-16" d="M273.47,459.7a13,13,0,0,0-17.29,18.56Z"/><path class="cls-16" d="M277.77,463.69l-17.29,18.56a13,13,0,0,0,17.29-18.56Z"/><circle cx="301.07" cy="465.52" r="3.22"/><circle cx="301.07" cy="478.52" r="3.22"/><circle class="cls-12" cx="405.73" cy="658.86" r="116.38"/><path class="cls-12" d="M482.56,656.86c0-16.4,6.46-30.21,17-39.89a102.75,102.75,0,1,0,.75,82.06A58.76,58.76,0,0,1,482.56,656.86Z"/><path class="cls-12" d="M499.58,617a102.75,102.75,0,1,0,.75,82.06"/><rect class="cls-15" x="579.42" y="438.35" width="346.99" height="372.04"/><circle class="cls-16" cx="613.96" cy="470.97" r="20.13"/><path class="cls-16" d="M620.46,459.7a13,13,0,0,0-17.29,18.56Z"/><path class="cls-16" d="M624.76,463.69l-17.29,18.56a13,13,0,0,0,17.29-18.56Z"/><circle cx="648.07" cy="465.52" r="3.22"/><circle cx="648.07" cy="478.52" r="3.22"/><circle class="cls-15" cx="752.73" cy="658.86" r="116.38"/><path class="cls-15" d="M829.55,656.86c0-16.4,6.46-30.21,17-39.89a102.75,102.75,0,1,0,.75,82.06A58.76,58.76,0,0,1,829.55,656.86Z"/><path class="cls-15" d="M846.57,617a102.75,102.75,0,1,0,.75,82.06"/><line class="cls-14" x1="-114.56" y1="505.27" x2="926.41" y2="505.27"/><rect class="cls-15" x="-114.56" y="438.35" width="346.99" height="372.04"/><rect class="cls-18" x="174.93" y="451.22" width="41.53" height="41.53"/><circle class="cls-14" cx="195.7" cy="471.99" r="14.3"/><line class="cls-17" x1="195.7" y1="464.6" x2="195.7" y2="479.37"/><circle class="cls-12" cx="58.74" cy="658.86" r="116.38"/><path class="cls-12" d="M135.57,656.86c0-16.4,6.46-30.21,17-39.89a102.75,102.75,0,1,0,.75,82.06A58.76,58.76,0,0,1,135.57,656.86Z"/><path class="cls-12" d="M152.59,617a102.75,102.75,0,1,0,.75,82.06"/><path class="cls-14" d="M146.28,690.72a93.13,93.13,0,1,1-.78-65.78"/><line class="cls-12" x1="244.43" y1="810.38" x2="244.43" y2="823.96"/><line class="cls-12" x1="591.42" y1="810.38" x2="591.42" y2="823.96"/><line class="cls-14" x1="114.45" y1="823.96" x2="-1.82" y2="1040.51"/><line class="cls-14" x1="202.45" y1="823.96" x2="120.53" y2="1035.3"/><line class="cls-14" x1="278.45" y1="823.96" x2="227.06" y2="1033.68"/><line class="cls-14" x1="351.45" y1="823.96" x2="328.73" y2="1038.54"/><line class="cls-14" x1="422.45" y1="823.96" x2="428.06" y2="1033.68"/><line class="cls-14" x1="493.45" y1="823.96" x2="527.73" y2="1038.54"/><line class="cls-14" x1="567.45" y1="823.96" x2="629.06" y2="1033.68"/><line class="cls-14" x1="648.45" y1="823.96" x2="741.73" y2="1034.54"/><line class="cls-14" x1="739.45" y1="823.96" x2="843.84" y2="994.85"/><line class="cls-14" x1="181.75" y1="877.36" x2="265.37" y2="877.36"/><line class="cls-14" x1="345.8" y1="877.36" x2="423.88" y2="877.36"/><line class="cls-14" x1="501.98" y1="877.36" x2="583.14" y2="877.36"/><line class="cls-14" x1="672.11" y1="877.36" x2="772.09" y2="877.36"/><line class="cls-14" x1="-7.11" y1="877.36" x2="85.74" y2="877.36"/><line class="cls-14" x1="140.35" y1="984.16" x2="239.2" y2="984.16"/><line class="cls-14" x1="334.49" y1="984.16" x2="426.74" y2="984.16"/><line class="cls-14" x1="519.05" y1="984.16" x2="614.51" y2="984.16"/><line class="cls-14" x1="719.42" y1="984.16" x2="851.33" y2="984.16"/><line class="cls-14" x1="-7.11" y1="984.16" x2="27.63" y2="984.16"/><line class="cls-14" x1="252.28" y1="930.76" x2="340.15" y2="930.76"/><line class="cls-14" x1="425.31" y1="930.76" x2="510.52" y2="930.76"/><line class="cls-14" x1="598.83" y1="930.76" x2="695.76" y2="930.76"/><line class="cls-14" x1="804.73" y1="930.76" x2="854.24" y2="930.76"/><line class="cls-14" x1="57.02" y1="930.76" x2="161.05" y2="930.76"/><path class="cls-14" d="M493.27,690.72a93.13,93.13,0,1,1-.78-65.78"/><path class="cls-14" d="M840.26,690.72a93.12,93.12,0,1,1-.77-65.78"/><rect class="cls-13" x="231.97" y="193.16" width="376.8" height="134.15"/><rect class="cls-13" x="239.05" y="200.25" width="362.63" height="119.97"/><circle class="cls-14" cx="420.37" cy="132.18" r="3.67"/><line class="cls-14" x1="261.35" y1="193.16" x2="417.77" y2="134.78"/><line class="cls-14" x1="580.47" y1="193.16" x2="424.04" y2="134.78"/><line class="cls-19" x1="55.78" y1="103.45" x2="69.14" y2="92.62"/><line class="cls-19" x1="51.55" y1="127.14" x2="101.48" y2="88.52"/><line class="cls-19" x1="50.62" y1="146.46" x2="119.92" y2="89.08"/><line class="cls-19" x1="52.93" y1="162.49" x2="136.82" y2="94.54"/><line class="cls-19" x1="54.3" y1="179.72" x2="91.62" y2="149.45"/><line class="cls-19" x1="63.96" y1="190.15" x2="83.32" y2="174.46"/><path class="cls-19" d="M368.07,49a10.39,10.39,0,0,1,2.41-3.69"/><path class="cls-19" d="M372.38,43.15s15.08-16.74,41.5-20.46"/><line class="cls-19" x1="333.82" y1="609" x2="351.35" y2="591.66"/><line class="cls-19" x1="322.01" y1="630.96" x2="377" y2="576.34"/><line class="cls-19" x1="318.14" y1="646.28" x2="361.32" y2="603.65"/><line class="cls-19" x1="682.19" y1="615.05" x2="713.31" y2="581.85"/><line class="cls-19" x1="669.93" y1="641.46" x2="702.75" y2="604.87"/><line class="cls-19" x1="689.92" y1="634.1" x2="741.61" y2="572.8"/><line class="cls-19" x1="691.43" y1="645.61" x2="726.52" y2="605.05"/><line class="cls-19" x1="725.57" y1="619.96" x2="759.9" y2="579.78"/><line class="cls-19" x1="14.16" y1="603.84" x2="42.76" y2="573.16"/><line class="cls-19" x1="30.82" y1="600.43" x2="51.85" y2="576"/><line class="cls-19" x1="17.19" y1="626.75" x2="50.9" y2="588.5"/><path class="cls-19" d="M504.34,626.47s14.77,31.79-.36,62.5"/><path class="cls-19" d="M502.43,627.25S492.06,635.8,490.56,660"/><path class="cls-19" d="M502.08,688.83s-9.56-13.47-10.17-22.59"/><path class="cls-19" d="M157,626.47s14.76,31.79-.36,62.5"/><path class="cls-19" d="M155.1,627.25S144.72,635.8,143.22,660"/><path class="cls-19" d="M154.74,688.83s-9.55-13.47-10.17-22.59"/><path class="cls-20" d="M249.39,467.54s2.15-8.2,8.88-11.91"/><path class="cls-20" d="M271.83,487.93s6.83-3.13,9.76-7.61"/><path class="cls-20" d="M282.56,478.17s1.46-1.69,1.84-5.68"/><path class="cls-20" d="M249.15,469.39a7.2,7.2,0,0,0-.15,1.66"/><path class="cls-20" d="M557.22,456.68s2.27,1.47,2.19,12.52"/><path class="cls-20" d="M559,454.12s1.39.59,1.17,2.86"/><path class="cls-20" d="M559.41,483.61s.88,7.24-5.12,6.44"/><line class="cls-20" x1="552.24" y1="489.98" x2="546.76" y2="489.98"/><path class="cls-20" d="M526.71,454.34s-2.78-.73-2.56,12.29"/><path class="cls-20" d="M596.44,467.71s2.15-8.2,8.88-11.91"/><path class="cls-20" d="M618.88,488.1s6.83-3.12,9.76-7.61"/><path class="cls-20" d="M629.61,478.34s1.47-1.69,1.85-5.68"/><path class="cls-20" d="M596.2,469.56a7.2,7.2,0,0,0-.15,1.66"/><path class="cls-20" d="M210,456.24s2.27,1.47,2.19,12.52"/><path class="cls-20" d="M211.78,453.68s1.4.59,1.18,2.86"/><path class="cls-20" d="M212.22,483.17s.88,7.24-5.12,6.44"/><line class="cls-20" x1="205.05" y1="489.54" x2="199.57" y2="489.54"/><path class="cls-20" d="M179.52,453.9s-2.78-.73-2.56,12.3"/></g></g></svg>